<svg xmlns="http://www.w3.org/2000/svg" xmlns:xlink="http://www.w3.org/1999/xlink" width="378" zoomAndPan="magnify" viewBox="0 0 283.5 283.500005" height="378" preserveAspectRatio="xMidYMid meet" version="1.0"><defs><clipPath id="92319659f8"><path d="M 0 0 L 283 0 L 283 283 L 0 283 Z M 0 0 " clip-rule="nonzero"/></clipPath><clipPath id="5d6e48675d"><path d="M 14.253906 75 L 268.480469 75 L 268.480469 239.992188 L 14.253906 239.992188 Z M 14.253906 75 " clip-rule="nonzero"/></clipPath><clipPath id="9de035c5d7"><path d="M 14.253906 180.488281 L 268.480469 180.488281 L 268.480469 239.992188 L 14.253906 239.992188 Z M 14.253906 180.488281 " clip-rule="nonzero"/></clipPath><clipPath id="d8a3e87664"><path d="M 62 75 L 221 75 L 221 247.1875 L 62 247.1875 Z M 62 75 " clip-rule="nonzero"/></clipPath><clipPath id="a93ac7a9ee"><rect x="0" width="283" y="0" height="283"/></clipPath></defs><path fill="#ffffff" d="M 0 0 L 283 0 L 283 283 L 0 283 Z M 0 0 " fill-opacity="1" fill-rule="nonzero"/><g transform="matrix(1, 0, 0, 1, 0, 0.000000000000005262)"><g clip-path="url(#a93ac7a9ee)"><g clip-path="url(#92319659f8)"><rect x="-62.37" width="408.24" fill="#ffffff" height="408.240007" y="-62.370001" fill-opacity="1"/></g><path fill="#ffd1ab" d="M 93.917969 81.203125 C 93.917969 81.203125 44.289062 36.058594 33.441406 41.492188 C 22.597656 46.921875 33.441406 100.011719 34.699219 107.953125 C 35.945312 115.894531 33.863281 115.6875 31.773438 116.523438 C 29.6875 117.359375 33.234375 117.777344 35.742188 117.777344 C 35.742188 117.777344 30.941406 121.539062 32.816406 122.167969 C 34.699219 122.792969 40.324219 121.332031 40.324219 121.332031 C 40.324219 121.332031 36.511719 126.636719 38.867188 126.972656 C 40.324219 127.179688 42.621094 125.09375 46.371094 127.808594 C 50.125 130.527344 93.917969 81.203125 93.917969 81.203125 " fill-opacity="1" fill-rule="nonzero"/><path fill="#e2aa80" d="M 83.105469 71.769531 C 81.046875 76.472656 78.148438 81.742188 74.730469 84.128906 C 68.417969 88.539062 47.894531 109.132812 39.878906 126.871094 C 41.332031 126.523438 43.390625 125.652344 46.371094 127.808594 C 50.125 130.527344 93.917969 81.203125 93.917969 81.203125 C 93.917969 81.203125 89.53125 77.21875 83.105469 71.769531 " fill-opacity="1" fill-rule="nonzero"/><path fill="#e26b00" d="M 33.441406 41.492188 C 32.710938 41.855469 32.082031 42.460938 31.539062 43.234375 C 37.058594 45.917969 46.28125 52.691406 55.757812 69.707031 C 64.671875 85.722656 68.5625 98.246094 69.621094 107.546875 C 81.703125 94.960938 93.917969 81.203125 93.917969 81.203125 C 93.917969 81.203125 44.289062 36.058594 33.441406 41.492188 " fill-opacity="1" fill-rule="nonzero"/><path fill="#d23b10" d="M 93.917969 81.203125 C 93.917969 81.203125 89.53125 77.21875 83.105469 71.769531 C 81.046875 76.472656 78.148438 81.742188 74.730469 84.128906 C 72.835938 85.449219 69.652344 88.242188 65.917969 91.96875 C 67.953125 97.914062 69.117188 103.097656 69.621094 107.546875 C 81.703125 94.960938 93.917969 81.203125 93.917969 81.203125 " fill-opacity="1" fill-rule="nonzero"/><path fill="#ffd1ab" d="M 188.816406 81.203125 C 188.816406 81.203125 238.445312 36.058594 249.292969 41.492188 C 260.136719 46.921875 249.292969 100.011719 248.035156 107.953125 C 246.789062 115.894531 248.871094 115.6875 250.960938 116.523438 C 253.042969 117.359375 249.496094 117.777344 246.996094 117.777344 C 246.996094 117.777344 251.792969 121.539062 249.917969 122.167969 C 248.035156 122.792969 242.40625 121.332031 242.40625 121.332031 C 242.40625 121.332031 246.222656 126.636719 243.867188 126.972656 C 242.40625 127.179688 240.117188 125.09375 236.359375 127.808594 C 232.609375 130.527344 188.816406 81.203125 188.816406 81.203125 " fill-opacity="1" fill-rule="nonzero"/><path fill="#e2aa80" d="M 199.625 71.769531 C 201.6875 76.472656 204.582031 81.742188 208.003906 84.128906 C 214.316406 88.539062 234.839844 109.132812 242.855469 126.871094 C 241.402344 126.523438 239.34375 125.652344 236.359375 127.808594 C 232.609375 130.527344 188.816406 81.203125 188.816406 81.203125 C 188.816406 81.203125 193.199219 77.21875 199.625 71.769531 " fill-opacity="1" fill-rule="nonzero"/><path fill="#e26b00" d="M 249.292969 41.492188 C 250.023438 41.855469 250.644531 42.460938 251.195312 43.234375 C 245.675781 45.917969 236.453125 52.691406 226.972656 69.707031 C 218.058594 85.722656 214.167969 98.246094 213.113281 107.546875 C 201.03125 94.960938 188.816406 81.203125 188.816406 81.203125 C 188.816406 81.203125 238.445312 36.058594 249.292969 41.492188 " fill-opacity="1" fill-rule="nonzero"/><path fill="#d23b10" d="M 188.816406 81.203125 C 188.816406 81.203125 193.199219 77.21875 199.625 71.769531 C 201.6875 76.472656 204.582031 81.742188 208.003906 84.128906 C 209.898438 85.449219 213.078125 88.242188 216.816406 91.96875 C 214.777344 97.914062 213.617188 103.097656 213.113281 107.546875 C 201.03125 94.960938 188.816406 81.203125 188.816406 81.203125 " fill-opacity="1" fill-rule="nonzero"/><g clip-path="url(#5d6e48675d)"><path fill="#f8963a" d="M 247.347656 188.769531 C 253.464844 191 268.480469 187.097656 268.480469 187.097656 C 268.480469 187.097656 259.027344 182.917969 255.6875 179.851562 C 252.351562 176.785156 250.6875 161.734375 240.671875 133.867188 C 230.667969 106 211.203125 94.300781 196.746094 83.710938 C 185.558594 75.515625 154.746094 74.996094 141.367188 75.179688 C 127.988281 74.996094 97.175781 75.515625 85.984375 83.710938 C 71.527344 94.300781 52.0625 106 42.054688 133.867188 C 32.046875 161.734375 30.378906 176.785156 27.042969 179.851562 C 23.707031 182.917969 14.253906 187.097656 14.253906 187.097656 C 14.253906 187.097656 29.269531 191 35.386719 188.769531 C 35.386719 188.769531 30.660156 197.132812 27.042969 197.96875 C 27.042969 197.96875 35.386719 199.363281 41.503906 197.96875 C 41.503906 197.96875 40.949219 200.476562 39 202.425781 C 39 202.425781 45.117188 203.539062 53.457031 201.867188 C 53.457031 201.867188 94.882812 213.292969 115.320312 230.011719 C 119.191406 233.175781 123.101562 235.4375 126.921875 237.003906 C 130.238281 238.640625 135.21875 239.988281 141.089844 239.972656 L 141.644531 239.972656 C 147.515625 239.988281 152.5 238.640625 155.8125 237.003906 C 159.632812 235.4375 163.542969 233.175781 167.414062 230.011719 C 187.847656 213.292969 229.277344 201.867188 229.277344 201.867188 C 237.617188 203.539062 243.734375 202.425781 243.734375 202.425781 C 241.785156 200.476562 241.226562 197.96875 241.226562 197.96875 C 247.347656 199.363281 255.6875 197.96875 255.6875 197.96875 C 252.074219 197.132812 247.347656 188.769531 247.347656 188.769531 " fill-opacity="1" fill-rule="nonzero"/></g><g clip-path="url(#9de035c5d7)"><path fill="#ffd1ab" d="M 247.347656 188.769531 C 253.464844 191 268.480469 187.097656 268.480469 187.097656 C 268.480469 187.097656 260.820312 183.707031 256.859375 180.792969 C 248.976562 182.386719 233.667969 186.207031 221.234375 193.644531 C 195.183594 209.230469 167.324219 228.441406 141.367188 231.316406 C 115.410156 228.441406 87.550781 209.230469 61.5 193.644531 C 49.066406 186.207031 33.761719 182.386719 25.875 180.792969 C 21.914062 183.707031 14.253906 187.097656 14.253906 187.097656 C 14.253906 187.097656 29.269531 191 35.386719 188.769531 C 35.386719 188.769531 30.660156 197.132812 27.042969 197.96875 C 27.042969 197.96875 35.386719 199.363281 41.503906 197.96875 C 41.503906 197.96875 40.949219 200.476562 39 202.425781 C 39 202.425781 45.117188 203.539062 53.457031 201.867188 C 53.457031 201.867188 94.882812 213.292969 115.320312 230.011719 C 119.191406 233.175781 123.101562 235.4375 126.921875 237.003906 C 130.238281 238.640625 135.21875 239.988281 141.089844 239.972656 L 141.644531 239.972656 C 147.515625 239.988281 152.5 238.640625 155.8125 237.003906 C 159.632812 235.4375 163.542969 233.175781 167.414062 230.011719 C 187.847656 213.292969 229.277344 201.867188 229.277344 201.867188 C 237.617188 203.539062 243.734375 202.425781 243.734375 202.425781 C 241.785156 200.476562 241.226562 197.96875 241.226562 197.96875 C 247.347656 199.363281 255.6875 197.96875 255.6875 197.96875 C 252.074219 197.132812 247.347656 188.769531 247.347656 188.769531 " fill-opacity="1" fill-rule="nonzero"/></g><g clip-path="url(#d8a3e87664)"><path fill="#e26b00" d="M 196.746094 83.710938 C 185.558594 75.515625 154.746094 74.996094 141.367188 75.179688 C 127.988281 74.996094 97.175781 75.515625 85.984375 83.710938 C 78.679688 89.0625 70.097656 94.703125 62.097656 102.570312 C 73.929688 106.046875 95.488281 113.78125 104.0625 125.929688 C 116.15625 143.066406 116.15625 176.507812 115.320312 190.300781 C 114.484375 204.097656 113.234375 211.621094 108.648438 218.308594 C 107.691406 219.707031 107.117188 221.792969 107.101562 224.203125 C 107.066406 233.316406 115.132812 247.1875 141.367188 247.1875 C 167.601562 247.1875 175.667969 233.316406 175.625 224.203125 C 175.617188 221.792969 175.046875 219.707031 174.085938 218.308594 C 169.5 211.621094 168.246094 204.097656 167.414062 190.300781 C 166.578125 176.507812 166.578125 143.066406 178.671875 125.929688 C 187.246094 113.78125 208.800781 106.046875 220.632812 102.570312 C 212.636719 94.703125 204.050781 89.0625 196.746094 83.710938 " fill-opacity="1" fill-rule="nonzero"/></g><path fill="#752800" d="M 159.570312 212.734375 C 159.570312 208.777344 145.664062 209.246094 141.367188 209.246094 C 137.066406 209.246094 123.164062 208.777344 123.164062 212.734375 C 123.164062 217.546875 134.820312 226.664062 141.367188 226.664062 C 147.90625 226.664062 159.570312 217.546875 159.570312 212.734375 " fill-opacity="1" fill-rule="nonzero"/><path fill="#9a3c00" d="M 149.714844 211.015625 C 145.417969 209.847656 130.910156 210.039062 127.410156 212.453125 C 123.90625 214.863281 137.417969 224.773438 142.792969 223.375 C 148.160156 221.984375 154.003906 212.191406 149.714844 211.015625 " fill-opacity="1" fill-rule="nonzero"/><path fill="#c56e42" d="M 138.179688 212.179688 C 134.28125 211.621094 130.949219 212.734375 131.226562 215.242188 C 131.503906 217.753906 137.0625 219.144531 139.011719 218.027344 C 140.957031 216.914062 142.066406 212.734375 138.179688 212.179688 " fill-opacity="1" fill-rule="nonzero"/><path fill="#572200" d="M 102.578125 183.613281 C 102.066406 183.613281 101.542969 183.457031 101.101562 183.128906 C 98.109375 180.925781 96.429688 178.316406 94.800781 175.792969 C 92.746094 172.59375 90.964844 169.828125 86.578125 167.945312 C 78.503906 164.476562 67.421875 165.210938 67.304688 165.214844 C 65.917969 165.300781 64.730469 164.273438 64.636719 162.890625 C 64.539062 161.507812 65.574219 160.3125 66.949219 160.210938 C 67.457031 160.175781 79.335938 159.375 88.554688 163.335938 C 94.34375 165.820312 96.824219 169.675781 99.007812 173.078125 C 100.453125 175.3125 101.808594 177.429688 104.0625 179.082031 C 105.175781 179.902344 105.414062 181.472656 104.601562 182.589844 C 104.109375 183.257812 103.347656 183.613281 102.578125 183.613281 " fill-opacity="1" fill-rule="nonzero"/><path fill="#572200" d="M 180.15625 183.613281 C 179.382812 183.613281 178.625 183.257812 178.136719 182.589844 C 177.316406 181.472656 177.558594 179.902344 178.671875 179.082031 C 180.921875 177.429688 182.28125 175.3125 183.71875 173.078125 C 185.910156 169.675781 188.390625 165.820312 194.179688 163.335938 C 203.390625 159.378906 215.277344 160.175781 215.78125 160.210938 C 217.160156 160.3125 218.195312 161.507812 218.097656 162.890625 C 218 164.273438 216.800781 165.300781 215.421875 165.214844 C 215.316406 165.214844 204.230469 164.476562 196.15625 167.945312 C 191.769531 169.828125 189.988281 172.59375 187.929688 175.792969 C 186.308594 178.316406 184.628906 180.925781 181.632812 183.128906 C 181.1875 183.457031 180.667969 183.613281 180.15625 183.613281 " fill-opacity="1" fill-rule="nonzero"/></g></g></svg>